<?xml version="1.0" encoding="utf-8"?>
<!-- Generator: Adobe Illustrator 27.3.1, SVG Export Plug-In . SVG Version: 6.00 Build 0)  -->
<svg version="1.1" id="Layer_1" xmlns="http://www.w3.org/2000/svg" xmlns:xlink="http://www.w3.org/1999/xlink" x="0px" y="0px"
	 viewBox="0 0 35 35" style="enable-background:new 0 0 35 35;" xml:space="preserve">
<style type="text/css">
	.st0{fill:#FFFFFF;}
	.st1{fill:none;}
</style>
<g>
	<path class="st0" d="M28.4,13.1h-2.2V8.8c0-4.8-3.9-8.8-8.8-8.8S8.8,3.9,8.8,8.8v4.4H6.6c-1.2,0-2.2,1-2.2,2.2v17.5
		c0,1.2,1,2.2,2.2,2.2h21.9c1.2,0,2.2-1,2.2-2.2V15.3C30.6,14.1,29.6,13.1,28.4,13.1z M17.5,26.2c-1.2,0-2.2-1-2.2-2.2
		s1-2.2,2.2-2.2s2.2,1,2.2,2.2S18.7,26.2,17.5,26.2z M21.9,13.1h-8.8V8.8c0-2.4,2-4.4,4.4-4.4s4.4,2,4.4,4.4V13.1z"/>
	<rect class="st1" width="35" height="35"/>
</g>
</svg>
